<?xml version="1.0" encoding="UTF-8"?>
<svg xmlns="http://www.w3.org/2000/svg" xmlns:xlink="http://www.w3.org/1999/xlink" width="30pt" height="30pt" viewBox="0 0 30 30" version="1.1">
<g id="surface1">
<path style="fill:none;stroke-width:1.3;stroke-linecap:butt;stroke-linejoin:miter;stroke:rgb(0%,0%,0%);stroke-opacity:1;stroke-miterlimit:10;" d="M 14.5 29 C 22.507812 29 29 22.507812 29 14.5 C 29 6.492188 22.507812 0 14.5 0 C 6.492188 0 0 6.492188 0 14.5 C 0 22.507812 6.492188 29 14.5 29 Z M 14.5 29 " transform="matrix(1,0,0,1,0.5,0.5)"/>
<path style="fill:none;stroke-width:1.3;stroke-linecap:butt;stroke-linejoin:miter;stroke:rgb(0%,0%,0%);stroke-opacity:1;stroke-miterlimit:10;" d="M 4.832904 9.801221 C 7.500872 9.801221 9.664935 7.609815 9.664935 4.902784 C 9.664935 2.195752 7.500872 0.00044 4.832904 0.00044 C 2.164935 0.00044 0.0008725 2.195752 0.0008725 4.902784 C 0.0008725 7.609815 2.164935 9.801221 4.832904 9.801221 Z M 4.832904 9.801221 " transform="matrix(1,0,0,1,10.56944,6.21831)"/>
<path style="fill:none;stroke-width:1.3;stroke-linecap:butt;stroke-linejoin:miter;stroke:rgb(0%,0%,0%);stroke-opacity:1;stroke-miterlimit:10;" d="M 5.638455 0.001105 C 1.306424 2.020636 0.138455 7.442511 0.001736 11.434699 " transform="matrix(1,0,0,1,6.138889,14.79577)"/>
<path style="fill:none;stroke-width:1.3;stroke-linecap:butt;stroke-linejoin:miter;stroke:rgb(0%,0%,0%);stroke-opacity:1;stroke-miterlimit:10;" d="M 0.00043625 0.001105 C 4.324655 2.008917 5.449655 7.469855 5.637155 11.434699 " transform="matrix(1,0,0,1,18.22222,14.79577)"/>
</g>
</svg>
