<?xml version="1.0" encoding="UTF-8"?>
<svg xmlns="http://www.w3.org/2000/svg" xmlns:xlink="http://www.w3.org/1999/xlink" width="85pt" height="85pt" viewBox="0 0 85 85" version="1.1">
<defs>
<clipPath id="clip1">
  <path d="M 0 0 L 85 0 L 85 84 L 0 84 Z M 0 0 "/>
</clipPath>
<clipPath id="clip2">
  <path d="M -20.5 -20.5 L 105.5 -20.5 L 105.5 104.882812 L -20.5 104.882812 Z M 46.214844 77.714844 L 42.089844 83.714844 L 42.910156 83.714844 L 38.785156 77.714844 L 38.636719 77.5 L 8 77.5 C 3.859375 77.5 0.5 74.140625 0.5 70 L 0.5 8 C 0.5 3.859375 3.859375 0.5 8 0.5 L 77 0.5 C 81.140625 0.5 84.5 3.859375 84.5 8 L 84.5 70 C 84.5 74.140625 81.140625 77.5 77 77.5 L 46.363281 77.5 Z M 47.035156 78.285156 L 46.625 78.5 L 77 78.5 C 81.695312 78.5 85.5 74.695312 85.5 70 L 85.5 8 C 85.5 3.304688 81.695312 -0.5 77 -0.5 L 8 -0.5 C 3.304688 -0.5 -0.5 3.304688 -0.5 8 L -0.5 70 C -0.5 74.695312 3.304688 78.5 8 78.5 L 38.375 78.5 L 37.964844 78.285156 L 42.089844 84.285156 L 42.5 84.882812 L 42.910156 84.285156 Z M 47.035156 78.285156 "/>
</clipPath>
<clipPath id="clip3">
  <path d="M 46.625 78 L 42.5 84 L 38.375 78 L 8 78 C 3.582031 78 0 74.417969 0 70 L 0 8 C 0 3.582031 3.582031 0 8 0 L 77 0 C 81.417969 0 85 3.582031 85 8 L 85 70 C 85 74.417969 81.417969 78 77 78 Z M 46.625 78 "/>
</clipPath>
<clipPath id="clip4">
  <path d="M 0 0 L 85 0 L 85 84 L 0 84 Z M 0 0 "/>
</clipPath>
<clipPath id="clip5">
  <path d="M 46.625 78 L 42.5 84 L 38.375 78 L 8 78 C 3.582031 78 0 74.417969 0 70 L 0 8 C 0 3.582031 3.582031 0 8 0 L 77 0 C 81.417969 0 85 3.582031 85 8 L 85 70 C 85 74.417969 81.417969 78 77 78 Z M 46.625 78 "/>
</clipPath>
</defs>
<g id="surface1">
<g clip-path="url(#clip1)" clip-rule="nonzero">
<g clip-path="url(#clip2)" clip-rule="evenodd">
<g clip-path="url(#clip3)" clip-rule="evenodd">
<path style=" stroke:none;fill-rule:nonzero;fill:rgb(100%,100%,100%);fill-opacity:1;" d="M 46.625 78 L 42.5 84 L 38.375 78 L 8 78 C 3.582031 78 0 74.417969 0 70 L 0 8 C 0 3.582031 3.582031 0 8 0 L 77 0 C 81.417969 0 85 3.582031 85 8 L 85 70 C 85 74.417969 81.417969 78 77 78 Z M 46.625 78 "/>
</g>
</g>
</g>
<g clip-path="url(#clip4)" clip-rule="nonzero">
<g clip-path="url(#clip5)" clip-rule="evenodd">
<path style="fill:none;stroke-width:2;stroke-linecap:butt;stroke-linejoin:miter;stroke:rgb(0%,0%,0%);stroke-opacity:1;stroke-miterlimit:10;" d="M 46.625 78 L 42.5 84 L 38.375 78 L 8 78 C 3.582031 78 0 74.417969 0 70 L 0 8 C 0 3.582031 3.582031 0 8 0 L 77 0 C 81.417969 0 85 3.582031 85 8 L 85 70 C 85 74.417969 81.417969 78 77 78 Z M 46.625 78 "/>
</g>
</g>
</g>
</svg>
