<?xml version="1.0" encoding="UTF-8"?>
<svg xmlns="http://www.w3.org/2000/svg" xmlns:xlink="http://www.w3.org/1999/xlink" width="86pt" height="86pt" viewBox="0 0 86 86" version="1.1">
<defs>
<clipPath id="clip1">
  <path d="M 5 5 L 81 5 L 81 81 L 5 81 Z M 5 5 "/>
</clipPath>
<clipPath id="clip2">
  <path d="M 41.828125 5.382812 L 44.171875 5.382812 L 44.171875 15.964844 C 58.117188 16.5625 69.320312 27.765625 69.917969 41.710938 L 80.5 41.710938 L 80.5 44.054688 L 69.917969 44.054688 C 69.320312 57.996094 58.117188 69.199219 44.171875 69.796875 L 44.171875 80.382812 L 41.828125 80.382812 L 41.828125 69.796875 C 27.882812 69.199219 16.679688 57.996094 16.082031 44.054688 L 5.5 44.054688 L 5.5 41.710938 L 16.082031 41.710938 C 16.679688 27.765625 27.882812 16.5625 41.828125 15.964844 Z M 41.71875 18.308594 C 29.085938 18.945312 19.011719 29.0625 18.425781 41.710938 L 28.9375 41.710938 L 28.9375 44.054688 L 18.425781 44.054688 C 19.015625 56.734375 29.148438 66.867188 41.828125 67.453125 L 41.828125 56.945312 L 44.171875 56.945312 L 44.171875 67.453125 C 56.851562 66.867188 66.984375 56.734375 67.574219 44.054688 L 57.0625 44.054688 L 57.0625 41.710938 L 67.574219 41.710938 C 66.984375 29.027344 56.851562 18.894531 44.171875 18.308594 L 44.171875 28.820312 L 41.828125 28.820312 L 41.828125 18.308594 C 41.792969 18.308594 41.753906 18.304688 41.71875 18.308594 Z M 41.71875 18.308594 "/>
</clipPath>
</defs>
<g id="surface1">
<g clip-path="url(#clip1)" clip-rule="nonzero">
<g clip-path="url(#clip2)" clip-rule="nonzero">
<path style=" stroke:none;fill-rule:nonzero;fill:rgb(100%,0%,0%);fill-opacity:1;" d="M 0.5 0.382812 L 85.5 0.382812 L 85.5 85.382812 L 0.5 85.382812 Z M 0.5 0.382812 "/>
</g>
</g>
<path style="fill:none;stroke-width:1;stroke-linecap:butt;stroke-linejoin:miter;stroke:rgb(0%,0%,0%);stroke-opacity:1;stroke-miterlimit:10;" d="M 36.328125 0.0018625 L 38.671875 0.0018625 L 38.671875 10.583894 C 52.617188 11.18155 63.820312 22.384675 64.417969 36.329988 L 75 36.329988 L 75 38.673738 L 64.417969 38.673738 C 63.820312 52.615144 52.617188 63.818269 38.671875 64.415925 L 38.671875 75.001863 L 36.328125 75.001863 L 36.328125 64.415925 C 22.382812 63.818269 11.179688 52.615144 10.582031 38.673738 L 0 38.673738 L 0 36.329988 L 10.582031 36.329988 C 11.179688 22.384675 22.382812 11.18155 36.328125 10.583894 Z M 36.21875 12.927644 C 23.585938 13.564363 13.511719 23.68155 12.925781 36.329988 L 23.4375 36.329988 L 23.4375 38.673738 L 12.925781 38.673738 C 13.515625 51.353425 23.648438 61.486238 36.328125 62.072175 L 36.328125 51.564363 L 38.671875 51.564363 L 38.671875 62.072175 C 51.351562 61.486238 61.484375 51.353425 62.074219 38.673738 L 51.5625 38.673738 L 51.5625 36.329988 L 62.074219 36.329988 C 61.484375 23.646394 51.351562 13.513581 38.671875 12.927644 L 38.671875 23.439363 L 36.328125 23.439363 L 36.328125 12.927644 C 36.292969 12.927644 36.253906 12.923738 36.21875 12.927644 Z M 36.21875 12.927644 " transform="matrix(1,0,0,1,5.5,5.38095)"/>
<path style="fill:none;stroke-width:1;stroke-linecap:butt;stroke-linejoin:miter;stroke:rgb(0%,0%,0%);stroke-opacity:1;stroke-miterlimit:10;" d="M 5.85938 0.0018375 C 2.636724 0.0018375 0.000005 2.638556 0.000005 5.861213 C 0.000005 9.079963 2.636724 11.720588 5.85938 11.720588 C 9.082036 11.720588 11.718755 9.079963 11.718755 5.861213 C 11.718755 2.638556 9.082036 0.0018375 5.85938 0.0018375 Z M 5.85938 0.0018375 " transform="matrix(1,0,0,1,37.14062,37.0216)"/>
<path style="fill:none;stroke-width:1;stroke-linecap:butt;stroke-linejoin:miter;stroke:rgb(0%,0%,0%);stroke-opacity:1;stroke-miterlimit:10;" d="M 3.51562 0.0018375 C 5.472651 0.0018375 7.031245 1.560431 7.031245 3.517463 C 7.031245 5.470588 5.472651 7.033088 3.51562 7.033088 C 1.558589 7.033088 -0.000005 5.470588 -0.000005 3.517463 C -0.000005 1.560431 1.558589 0.0018375 3.51562 0.0018375 Z M 3.51562 0.0018375 " transform="matrix(1,0,0,1,39.48438,39.36535)"/>
</g>
</svg>
