<?xml version="1.0" encoding="UTF-8"?>
<svg xmlns="http://www.w3.org/2000/svg" xmlns:xlink="http://www.w3.org/1999/xlink" width="86pt" height="86pt" viewBox="0 0 86 86" version="1.1">
<g id="surface1">
<path style="fill:none;stroke-width:1;stroke-linecap:butt;stroke-linejoin:miter;stroke:rgb(0%,0%,0%);stroke-opacity:1;stroke-miterlimit:10;" d="M 36.328125 0.0018625 L 36.328125 10.583894 C 22.382812 11.18155 11.179688 22.384675 10.582031 36.329988 L 0 36.329988 L 0 38.673738 L 10.582031 38.673738 C 11.179688 52.615144 22.382812 63.818269 36.328125 64.415925 L 36.328125 75.001863 L 38.671875 75.001863 L 38.671875 64.415925 C 52.617188 63.818269 63.820312 52.615144 64.417969 38.673738 L 75 38.673738 L 75 36.329988 L 64.417969 36.329988 C 63.820312 22.384675 52.617188 11.18155 38.671875 10.583894 L 38.671875 0.0018625 Z M 36.328125 0.0018625 " transform="matrix(1,0,0,1,5.5,5.38095)"/>
<path style="fill:none;stroke-width:1;stroke-linecap:butt;stroke-linejoin:miter;stroke:rgb(0%,0%,0%);stroke-opacity:1;stroke-miterlimit:10;" d="M 23.29156 0.00122375 C 23.326716 -0.0026825 23.365779 0.00122375 23.400935 0.00122375 L 23.400935 10.512942 L 25.744685 10.512942 L 25.744685 0.00122375 C 38.424373 0.587161 48.557185 10.719974 49.147029 23.403567 L 38.63531 23.403567 L 38.63531 25.747317 L 49.147029 25.747317 C 48.557185 38.427005 38.424373 48.559817 25.744685 49.145755 L 25.744685 38.637942 L 23.400935 38.637942 L 23.400935 49.145755 C 10.721248 48.559817 0.588435 38.427005 -0.00140875 25.747317 L 10.51031 25.747317 L 10.51031 23.403567 L -0.00140875 23.403567 C 0.584529 10.75513 10.658748 0.637942 23.29156 0.00122375 Z M 23.29156 0.00122375 " transform="matrix(1,0,0,1,18.42719,18.30737)"/>
<path style="fill:none;stroke-width:1;stroke-linecap:butt;stroke-linejoin:miter;stroke:rgb(0%,0%,0%);stroke-opacity:1;stroke-miterlimit:10;" d="M 5.85938 0.0018375 C 2.636724 0.0018375 0.000005 2.638556 0.000005 5.861213 C 0.000005 9.079963 2.636724 11.720588 5.85938 11.720588 C 9.082036 11.720588 11.718755 9.079963 11.718755 5.861213 C 11.718755 2.638556 9.082036 0.0018375 5.85938 0.0018375 Z M 5.85938 0.0018375 " transform="matrix(1,0,0,1,37.14062,37.0216)"/>
<path style="fill:none;stroke-width:1;stroke-linecap:butt;stroke-linejoin:miter;stroke:rgb(0%,0%,0%);stroke-opacity:1;stroke-miterlimit:10;" d="M 3.51562 0.0018375 C 5.472651 0.0018375 7.031245 1.560431 7.031245 3.517463 C 7.031245 5.470588 5.472651 7.033088 3.51562 7.033088 C 1.558589 7.033088 -0.000005 5.470588 -0.000005 3.517463 C -0.000005 1.560431 1.558589 0.0018375 3.51562 0.0018375 Z M 3.51562 0.0018375 " transform="matrix(1,0,0,1,39.48438,39.36535)"/>
</g>
</svg>
