<?xml version="1.0" encoding="UTF-8"?>
<svg xmlns="http://www.w3.org/2000/svg" xmlns:xlink="http://www.w3.org/1999/xlink" width="31pt" height="32pt" viewBox="0 0 31 32" version="1.1">
<defs>
<clipPath id="clip1">
  <path d="M 10 11 L 21 11 L 21 22 L 10 22 Z M 10 11 "/>
</clipPath>
<clipPath id="clip2">
  <path d="M 16.035156 16.414062 L 20.507812 20.886719 C 20.679688 21.058594 20.679688 21.335938 20.507812 21.507812 C 20.421875 21.59375 20.3125 21.636719 20.199219 21.636719 C 20.085938 21.636719 19.972656 21.59375 19.886719 21.507812 L 15.414062 17.035156 L 10.941406 21.507812 C 10.855469 21.59375 10.742188 21.636719 10.628906 21.636719 C 10.515625 21.636719 10.40625 21.59375 10.320312 21.507812 C 10.148438 21.335938 10.148438 21.058594 10.320312 20.886719 L 14.792969 16.414062 L 10.320312 11.9375 C 10.148438 11.769531 10.148438 11.488281 10.320312 11.320312 C 10.488281 11.148438 10.769531 11.148438 10.9375 11.320312 L 15.414062 15.792969 L 19.886719 11.320312 C 20.058594 11.148438 20.335938 11.148438 20.507812 11.320312 C 20.679688 11.488281 20.679688 11.769531 20.507812 11.9375 Z M 16.035156 16.414062 "/>
</clipPath>
</defs>
<g id="surface1">
<g clip-path="url(#clip1)" clip-rule="nonzero">
<g clip-path="url(#clip2)" clip-rule="nonzero">
<path style=" stroke:none;fill-rule:nonzero;fill:rgb(0%,0%,0%);fill-opacity:1;" d="M 5.191406 6.191406 L 25.636719 6.191406 L 25.636719 26.636719 L 5.191406 26.636719 Z M 5.191406 6.191406 "/>
</g>
</g>
<path style="fill:none;stroke-width:1;stroke-linecap:butt;stroke-linejoin:miter;stroke:rgb(0%,0%,0%);stroke-opacity:1;stroke-miterlimit:10;" d="M 11.535718 23.071149 C 17.895093 23.071149 23.070874 17.895368 23.070874 11.535993 C 23.070874 5.176618 17.895093 0.00083625 11.535718 0.00083625 C 5.176343 0.00083625 0.00056125 5.172711 0.00056125 11.535993 C 0.00056125 17.895368 5.176343 23.071149 11.535718 23.071149 Z M 11.535718 23.071149 " transform="matrix(1,0,0,1,3.878345,4.87807)"/>
</g>
</svg>
