<?xml version="1.0" encoding="UTF-8"?>
<svg xmlns="http://www.w3.org/2000/svg" xmlns:xlink="http://www.w3.org/1999/xlink" width="31pt" height="32pt" viewBox="0 0 31 32" version="1.1">
<defs>
<clipPath id="clip1">
  <path d="M 4 4 L 27 4 L 27 28 L 4 28 Z M 4 4 "/>
</clipPath>
<clipPath id="clip2">
  <path d="M 4 27.5625 L 4 6.453125 L 11.195312 4.4375 L 11.199219 4.460938 L 18.164062 6.742188 L 18.414062 6.660156 L 27 4.496094 L 27 25.941406 L 17.839844 27.550781 L 17.839844 7.644531 L 12.132812 5.777344 L 12.132812 25.933594 Z M 18.796875 7.554688 L 18.796875 26.40625 L 26.042969 25.136719 L 26.042969 5.730469 Z M 4.957031 7.183594 L 4.957031 26.394531 L 11.175781 25.144531 L 11.175781 5.4375 Z M 4.957031 7.183594 "/>
</clipPath>
<clipPath id="clip3">
  <path d="M 11 25 L 19 25 L 19 28 L 11 28 Z M 11 25 "/>
</clipPath>
<clipPath id="clip4">
  <path d="M 11.09375 26.160156 L 11.28125 25.21875 L 18.234375 26.605469 L 18.046875 27.546875 Z M 11.09375 26.160156 "/>
</clipPath>
</defs>
<g id="surface1">
<g clip-path="url(#clip1)" clip-rule="nonzero">
<g clip-path="url(#clip2)" clip-rule="nonzero">
<rect x="0" y="0" width="31" height="32" style="fill:rgb(0%,0%,0%);fill-opacity:1;stroke:none;"/>
</g>
</g>
<g clip-path="url(#clip3)" clip-rule="nonzero">
<g clip-path="url(#clip4)" clip-rule="nonzero">
<path style=" stroke:none;fill-rule:nonzero;fill:rgb(0%,0%,0%);fill-opacity:1;" d="M 5.214844 30.089844 L 7.351562 19.339844 L 24.117188 22.671875 L 21.976562 33.425781 Z M 5.214844 30.089844 "/>
</g>
</g>
</g>
</svg>
