<?xml version="1.0" encoding="UTF-8"?>
<svg xmlns="http://www.w3.org/2000/svg" xmlns:xlink="http://www.w3.org/1999/xlink" width="31pt" height="32pt" viewBox="0 0 31 32" version="1.1">
<defs>
<clipPath id="clip1">
  <path d="M 5 5 L 28 5 L 28 28 L 5 28 Z M 5 5 "/>
</clipPath>
<clipPath id="clip2">
  <path d="M 15.140625 27.300781 L 5.699219 5.699219 L 27.300781 15.160156 L 17.503906 17.519531 Z M 7.339844 7.339844 L 14.910156 24.660156 L 16.804688 16.820312 L 24.660156 14.925781 Z M 7.339844 7.339844 "/>
</clipPath>
<clipPath id="clip3">
  <path d="M 6 6 L 18 6 L 18 18 L 6 18 Z M 6 6 "/>
</clipPath>
<clipPath id="clip4">
  <path d="M 6.21875 6.820312 L 6.816406 6.21875 L 17.46875 16.855469 L 16.871094 17.453125 Z M 6.21875 6.820312 "/>
</clipPath>
</defs>
<g id="surface1">
<g clip-path="url(#clip1)" clip-rule="nonzero">
<g clip-path="url(#clip2)" clip-rule="nonzero">
<path style=" stroke:none;fill-rule:nonzero;fill:rgb(0%,0%,0%);fill-opacity:1;" d="M 0.699219 0.699219 L 32.300781 0.699219 L 32.300781 32.300781 L 0.699219 32.300781 Z M 0.699219 0.699219 "/>
</g>
</g>
<g clip-path="url(#clip3)" clip-rule="nonzero">
<g clip-path="url(#clip4)" clip-rule="nonzero">
<path style=" stroke:none;fill-rule:nonzero;fill:rgb(0%,0%,0%);fill-opacity:1;" d="M -0.851562 6.824219 L 6.8125 -0.851562 L 24.539062 16.847656 L 16.878906 24.523438 Z M -0.851562 6.824219 "/>
</g>
</g>
</g>
</svg>
