<?xml version="1.0" encoding="UTF-8"?>
<svg xmlns="http://www.w3.org/2000/svg" xmlns:xlink="http://www.w3.org/1999/xlink" width="31pt" height="32pt" viewBox="0 0 31 32" version="1.1">
<defs>
<clipPath id="clip1">
  <path d="M 3 4 L 28 4 L 28 29 L 3 29 Z M 3 4 "/>
</clipPath>
<clipPath id="clip2">
  <path d="M 16.675781 4.097656 C 17.574219 4.097656 18.316406 4.839844 18.316406 5.738281 L 18.316406 6.875 C 18.640625 6.988281 18.957031 7.117188 19.265625 7.261719 L 20.070312 6.457031 C 20.703125 5.820312 21.75 5.820312 22.382812 6.457031 L 24.699219 8.773438 C 25.335938 9.410156 25.335938 10.464844 24.699219 11.097656 L 23.898438 11.902344 C 24.042969 12.210938 24.175781 12.527344 24.289062 12.851562 L 25.425781 12.851562 C 26.328125 12.851562 27.070312 13.59375 27.070312 14.492188 L 27.070312 17.773438 C 27.070312 18.675781 26.328125 19.414062 25.425781 19.414062 L 24.28125 19.414062 C 24.167969 19.734375 24.042969 20.050781 23.898438 20.355469 L 24.699219 21.160156 C 25.335938 21.796875 25.335938 22.847656 24.699219 23.484375 L 22.382812 25.800781 C 21.75 26.4375 20.703125 26.4375 20.070312 25.800781 L 19.265625 24.996094 C 18.957031 25.140625 18.640625 25.269531 18.316406 25.382812 L 18.316406 26.527344 C 18.316406 27.425781 17.574219 28.167969 16.675781 28.167969 L 13.394531 28.167969 C 12.492188 28.167969 11.753906 27.425781 11.753906 26.527344 L 11.753906 25.382812 C 11.429688 25.269531 11.117188 25.140625 10.8125 24.996094 L 10.007812 25.800781 C 9.371094 26.4375 8.328125 26.4375 7.691406 25.800781 L 5.367188 23.484375 C 4.730469 22.847656 4.730469 21.796875 5.367188 21.160156 L 6.179688 20.347656 C 6.035156 20.046875 5.902344 19.734375 5.785156 19.414062 L 4.640625 19.414062 C 3.742188 19.414062 3 18.675781 3 17.773438 L 3 14.492188 C 3 13.59375 3.742188 12.851562 4.640625 12.851562 L 5.785156 12.851562 C 5.902344 12.527344 6.03125 12.214844 6.179688 11.910156 L 5.367188 11.097656 C 4.730469 10.464844 4.730469 9.410156 5.367188 8.773438 L 7.691406 6.457031 C 8.328125 5.820312 9.371094 5.820312 10.007812 6.457031 L 10.8125 7.261719 C 11.117188 7.117188 11.429688 6.988281 11.753906 6.875 L 11.753906 5.738281 C 11.753906 4.839844 12.492188 4.097656 13.394531 4.097656 Z M 16.675781 5.191406 L 13.394531 5.191406 C 13.082031 5.191406 12.847656 5.425781 12.847656 5.738281 L 12.847656 7.246094 C 12.847656 7.476562 12.683594 7.695312 12.460938 7.765625 C 11.929688 7.929688 11.421875 8.132812 10.941406 8.390625 C 10.734375 8.496094 10.464844 8.457031 10.300781 8.296875 L 9.238281 7.234375 C 9.019531 7.015625 8.683594 7.015625 8.460938 7.234375 L 6.136719 9.550781 C 5.914062 9.773438 5.914062 10.101562 6.136719 10.320312 L 7.207031 11.390625 C 7.375 11.554688 7.417969 11.832031 7.308594 12.039062 C 7.050781 12.523438 6.828125 13.023438 6.667969 13.550781 C 6.601562 13.777344 6.378906 13.945312 6.144531 13.945312 L 4.640625 13.945312 C 4.328125 13.945312 4.09375 14.179688 4.09375 14.492188 L 4.09375 17.773438 C 4.09375 18.085938 4.328125 18.320312 4.640625 18.320312 L 6.144531 18.320312 C 6.375 18.320312 6.597656 18.484375 6.667969 18.707031 C 6.828125 19.234375 7.050781 19.742188 7.308594 20.226562 C 7.414062 20.433594 7.371094 20.707031 7.207031 20.867188 L 6.136719 21.9375 C 5.914062 22.15625 5.914062 22.484375 6.136719 22.707031 L 8.460938 25.023438 C 8.683594 25.242188 9.019531 25.242188 9.238281 25.023438 L 10.300781 23.960938 C 10.464844 23.800781 10.734375 23.761719 10.941406 23.867188 C 11.421875 24.125 11.929688 24.328125 12.460938 24.492188 C 12.683594 24.5625 12.847656 24.789062 12.847656 25.023438 L 12.847656 26.527344 C 12.847656 26.839844 13.082031 27.074219 13.394531 27.074219 L 16.675781 27.074219 C 16.988281 27.074219 17.222656 26.839844 17.222656 26.527344 L 17.222656 25.023438 C 17.21875 24.789062 17.382812 24.5625 17.605469 24.492188 C 18.144531 24.328125 18.65625 24.125 19.136719 23.867188 C 19.339844 23.761719 19.613281 23.800781 19.777344 23.960938 L 20.835938 25.023438 C 21.058594 25.242188 21.394531 25.242188 21.617188 25.023438 L 23.929688 22.707031 C 24.152344 22.484375 24.152344 22.15625 23.929688 21.9375 L 22.871094 20.875 C 22.710938 20.710938 22.667969 20.441406 22.777344 20.234375 C 23.03125 19.753906 23.238281 19.242188 23.402344 18.707031 C 23.46875 18.484375 23.691406 18.320312 23.921875 18.320312 L 25.425781 18.320312 C 25.738281 18.320312 25.972656 18.085938 25.972656 17.773438 L 25.972656 14.492188 C 25.972656 14.179688 25.738281 13.945312 25.425781 13.945312 L 23.921875 13.945312 C 23.691406 13.941406 23.46875 13.777344 23.402344 13.550781 C 23.238281 13.015625 23.03125 12.511719 22.777344 12.03125 C 22.664062 11.824219 22.707031 11.546875 22.871094 11.382812 L 23.929688 10.320312 C 24.152344 10.101562 24.152344 9.773438 23.929688 9.550781 L 21.617188 7.234375 C 21.394531 7.015625 21.058594 7.015625 20.835938 7.234375 L 19.777344 8.296875 C 19.613281 8.457031 19.339844 8.496094 19.136719 8.390625 C 18.65625 8.132812 18.144531 7.929688 17.605469 7.765625 C 17.386719 7.695312 17.222656 7.476562 17.222656 7.246094 L 17.222656 5.738281 C 17.222656 5.425781 16.988281 5.191406 16.675781 5.191406 Z M 15.035156 10.664062 C 18.046875 10.664062 20.503906 13.117188 20.503906 16.132812 C 20.503906 19.148438 18.046875 21.601562 15.035156 21.601562 C 12.019531 21.601562 9.5625 19.148438 9.5625 16.132812 C 9.5625 13.117188 12.019531 10.664062 15.035156 10.664062 Z M 15.035156 11.757812 C 12.609375 11.757812 10.65625 13.710938 10.65625 16.132812 C 10.65625 18.554688 12.609375 20.507812 15.035156 20.507812 C 17.457031 20.507812 19.410156 18.554688 19.410156 16.132812 C 19.410156 13.710938 17.457031 11.757812 15.035156 11.757812 Z M 15.035156 11.757812 "/>
</clipPath>
</defs>
<g id="surface1">
<g clip-path="url(#clip1)" clip-rule="nonzero">
<g clip-path="url(#clip2)" clip-rule="nonzero">
<rect x="0" y="0" width="31" height="32" style="fill:rgb(0%,0%,0%);fill-opacity:1;stroke:none;"/>
</g>
</g>
</g>
</svg>
