<?xml version="1.0" encoding="UTF-8"?>
<svg xmlns="http://www.w3.org/2000/svg" xmlns:xlink="http://www.w3.org/1999/xlink" width="31pt" height="32pt" viewBox="0 0 31 32" version="1.1">
<defs>
<clipPath id="clip1">
  <path d="M 8 4 L 23 4 L 23 27 L 8 27 Z M 8 4 "/>
</clipPath>
<clipPath id="clip2">
  <path d="M 15.496094 26.085938 L 15.054688 25.238281 C 15.046875 25.226562 14.390625 23.96875 13.527344 22.214844 C 11.777344 18.648438 9.589844 13.902344 9.109375 11.542969 C 8.746094 9.789062 9.207031 8.011719 10.40625 6.542969 C 11.683594 4.980469 13.632812 4.007812 15.496094 4.007812 C 17.363281 4.007812 19.3125 4.980469 20.589844 6.542969 C 21.785156 8.011719 22.246094 9.789062 21.886719 11.542969 C 21.398438 13.921875 19.214844 18.65625 17.464844 22.214844 C 16.605469 23.96875 15.949219 25.226562 15.941406 25.238281 Z M 15.496094 5.007812 C 13.925781 5.007812 12.273438 5.839844 11.179688 7.175781 C 10.175781 8.40625 9.789062 9.886719 10.085938 11.34375 C 10.445312 13.105469 11.988281 16.808594 14.425781 21.773438 C 14.851562 22.636719 15.226562 23.382812 15.496094 23.914062 C 15.769531 23.382812 16.144531 22.636719 16.570312 21.773438 C 17.980469 18.902344 20.417969 13.734375 20.90625 11.34375 C 21.207031 9.886719 20.816406 8.40625 19.8125 7.175781 C 18.722656 5.839844 17.070312 5.007812 15.496094 5.007812 Z M 15.496094 5.007812 "/>
</clipPath>
<clipPath id="clip3">
  <path d="M 7 21 L 24 21 L 24 28 L 7 28 Z M 7 21 "/>
</clipPath>
<clipPath id="clip4">
  <path d="M 23.652344 27.992188 L 7.347656 27.992188 L 9.121094 21.492188 L 14.289062 21.492188 L 14.425781 21.773438 C 14.851562 22.636719 15.226562 23.382812 15.496094 23.914062 C 15.769531 23.382812 16.144531 22.636719 16.570312 21.773438 L 16.707031 21.492188 L 21.878906 21.492188 Z M 8.65625 26.992188 L 22.34375 26.992188 L 21.117188 22.492188 L 17.328125 22.492188 C 16.535156 24.101562 15.945312 25.226562 15.941406 25.238281 L 15.496094 26.085938 L 15.054688 25.238281 C 15.046875 25.226562 14.460938 24.101562 13.667969 22.492188 L 9.882812 22.492188 Z M 8.65625 26.992188 "/>
</clipPath>
<clipPath id="clip5">
  <path d="M 11 8 L 20 8 L 20 15 L 11 15 Z M 11 8 "/>
</clipPath>
<clipPath id="clip6">
  <path d="M 14.5 14.707031 L 11.644531 11.855469 L 12.355469 11.148438 L 14.5 13.292969 L 19.144531 8.648438 L 19.855469 9.355469 Z M 14.5 14.707031 "/>
</clipPath>
</defs>
<g id="surface1">
<g clip-path="url(#clip1)" clip-rule="nonzero">
<g clip-path="url(#clip2)" clip-rule="nonzero">
<path style=" stroke:none;fill-rule:nonzero;fill:rgb(0%,0%,0%);fill-opacity:1;" d="M 3.988281 -0.992188 L 27.007812 -0.992188 L 27.007812 31.085938 L 3.988281 31.085938 Z M 3.988281 -0.992188 "/>
</g>
</g>
<g clip-path="url(#clip3)" clip-rule="nonzero">
<g clip-path="url(#clip4)" clip-rule="nonzero">
<path style=" stroke:none;fill-rule:nonzero;fill:rgb(0%,0%,0%);fill-opacity:1;" d="M 2.347656 16.492188 L 28.652344 16.492188 L 28.652344 32.992188 L 2.347656 32.992188 Z M 2.347656 16.492188 "/>
</g>
</g>
<g clip-path="url(#clip5)" clip-rule="nonzero">
<g clip-path="url(#clip6)" clip-rule="nonzero">
<path style=" stroke:none;fill-rule:nonzero;fill:rgb(0%,0%,0%);fill-opacity:1;" d="M 6.644531 3.648438 L 24.855469 3.648438 L 24.855469 19.707031 L 6.644531 19.707031 Z M 6.644531 3.648438 "/>
</g>
</g>
</g>
</svg>
