<?xml version="1.0" encoding="UTF-8"?>
<svg xmlns="http://www.w3.org/2000/svg" xmlns:xlink="http://www.w3.org/1999/xlink" width="31pt" height="32pt" viewBox="0 0 31 32" version="1.1">
<defs>
<clipPath id="clip1">
  <path d="M 3 4 L 28 4 L 28 28 L 3 28 Z M 3 4 "/>
</clipPath>
<clipPath id="clip2">
  <path d="M 15.125 4.121094 L 15.875 4.121094 L 15.875 7.460938 C 20.335938 7.652344 23.921875 11.1875 24.113281 15.59375 L 27.5 15.59375 L 27.5 16.332031 L 24.113281 16.332031 C 23.921875 20.734375 20.335938 24.273438 15.875 24.460938 L 15.875 27.804688 L 15.125 27.804688 L 15.125 24.460938 C 10.664062 24.273438 7.078125 20.734375 6.886719 16.332031 L 3.5 16.332031 L 3.5 15.59375 L 6.886719 15.59375 C 7.078125 11.1875 10.664062 7.652344 15.125 7.460938 Z M 15.089844 8.203125 C 11.046875 8.40625 7.824219 11.597656 7.636719 15.59375 L 11 15.59375 L 11 16.332031 L 7.636719 16.332031 C 7.824219 20.335938 11.066406 23.535156 15.125 23.722656 L 15.125 20.402344 L 15.875 20.402344 L 15.875 23.722656 C 19.933594 23.535156 23.175781 20.335938 23.363281 16.332031 L 20 16.332031 L 20 15.59375 L 23.363281 15.59375 C 23.175781 11.585938 19.933594 8.386719 15.875 8.203125 L 15.875 11.523438 L 15.125 11.523438 L 15.125 8.203125 C 15.113281 8.203125 15.101562 8.203125 15.089844 8.203125 Z M 15.089844 8.203125 "/>
</clipPath>
<clipPath id="clip3">
  <path d="M 13 14 L 18 14 L 18 18 L 13 18 Z M 13 14 "/>
</clipPath>
<clipPath id="clip4">
  <path d="M 15.5 14.113281 C 16.53125 14.113281 17.375 14.945312 17.375 15.960938 C 17.375 16.980469 16.53125 17.8125 15.5 17.8125 C 14.46875 17.8125 13.625 16.980469 13.625 15.960938 C 13.625 14.945312 14.46875 14.113281 15.5 14.113281 Z M 15.5 14.851562 C 14.875 14.851562 14.375 15.34375 14.375 15.960938 C 14.375 16.578125 14.875 17.074219 15.5 17.074219 C 16.125 17.074219 16.625 16.578125 16.625 15.960938 C 16.625 15.34375 16.125 14.851562 15.5 14.851562 Z M 15.5 14.851562 "/>
</clipPath>
</defs>
<g id="surface1">
<g clip-path="url(#clip1)" clip-rule="nonzero">
<g clip-path="url(#clip2)" clip-rule="nonzero">
<rect x="0" y="0" width="31" height="32" style="fill:rgb(0%,0%,0%);fill-opacity:1;stroke:none;"/>
</g>
</g>
<g clip-path="url(#clip3)" clip-rule="nonzero">
<g clip-path="url(#clip4)" clip-rule="nonzero">
<path style=" stroke:none;fill-rule:nonzero;fill:rgb(0%,0%,0%);fill-opacity:1;" d="M 8.625 9.113281 L 22.375 9.113281 L 22.375 22.8125 L 8.625 22.8125 Z M 8.625 9.113281 "/>
</g>
</g>
</g>
</svg>
