<?xml version="1.0" encoding="UTF-8"?>
<svg xmlns="http://www.w3.org/2000/svg" xmlns:xlink="http://www.w3.org/1999/xlink" width="20pt" height="120pt" viewBox="0 0 20 120" version="1.1">
<defs>
<clipPath id="clip1">
  <path d="M 1 3 L 19 3 L 19 13 L 1 13 Z M 1 3 "/>
</clipPath>
<clipPath id="clip2">
  <path d="M 10.113281 3.117188 L 18.296875 7.984375 L 10.113281 12.855469 L 1.925781 7.984375 Z M 10.113281 3.117188 "/>
</clipPath>
<clipPath id="clip3">
  <path d="M 1 8 L 10 8 L 10 23 L 1 23 Z M 1 8 "/>
</clipPath>
<clipPath id="clip4">
  <path d="M 1.71875 8.359375 L 9.902344 13.230469 L 9.902344 22.964844 L 1.71875 18.097656 Z M 1.71875 8.359375 "/>
</clipPath>
<clipPath id="clip5">
  <path d="M 10 8 L 19 8 L 19 23 L 10 23 Z M 10 8 "/>
</clipPath>
<clipPath id="clip6">
  <path d="M 18.503906 8.359375 L 18.503906 18.097656 L 10.320312 22.964844 L 10.320312 13.230469 Z M 18.503906 8.359375 "/>
</clipPath>
<clipPath id="clip7">
  <path d="M 1 31 L 19 31 L 19 41 L 1 41 Z M 1 31 "/>
</clipPath>
<clipPath id="clip8">
  <path d="M 10.113281 31 L 18.296875 35.867188 L 10.113281 40.738281 L 1.925781 35.871094 Z M 10.113281 31 "/>
</clipPath>
</defs>
<g id="surface1">
<g clip-path="url(#clip1)" clip-rule="nonzero">
<g clip-path="url(#clip2)" clip-rule="evenodd">
<path style=" stroke:none;fill-rule:nonzero;fill:rgb(0%,65.882874%,100%);fill-opacity:1;" d="M -3.074219 -1.882812 L 23.296875 -1.882812 L 23.296875 17.855469 L -3.074219 17.855469 Z M -3.074219 -1.882812 "/>
</g>
</g>
<path style="fill:none;stroke-width:0.5;stroke-linecap:butt;stroke-linejoin:miter;stroke:rgb(0%,0%,0%);stroke-opacity:1;stroke-miterlimit:10;" d="M 8.185637 0.0003875 L 16.369231 4.867575 L 8.185637 9.738669 L -0.00186275 4.867575 Z M 8.185637 0.0003875 " transform="matrix(1,0,0,1,1.927644,3.1168)"/>
<g clip-path="url(#clip3)" clip-rule="nonzero">
<g clip-path="url(#clip4)" clip-rule="evenodd">
<path style=" stroke:none;fill-rule:nonzero;fill:rgb(0%,75.294495%,100%);fill-opacity:1;" d="M -3.28125 3.359375 L 14.902344 3.359375 L 14.902344 27.964844 L -3.28125 27.964844 Z M -3.28125 3.359375 "/>
</g>
</g>
<path style="fill:none;stroke-width:0.5;stroke-linecap:butt;stroke-linejoin:miter;stroke:rgb(0%,0%,0%);stroke-opacity:1;stroke-miterlimit:10;" d="M 0.000509 -0.000325 L 8.184103 4.870769 L 8.184103 14.605144 L 0.000509 9.737956 Z M 0.000509 -0.000325 " transform="matrix(1,0,0,1,1.718241,8.3597)"/>
<g clip-path="url(#clip5)" clip-rule="nonzero">
<g clip-path="url(#clip6)" clip-rule="evenodd">
<path style=" stroke:none;fill-rule:nonzero;fill:rgb(0%,76.470947%,100%);fill-opacity:1;" d="M 5.320312 3.359375 L 23.503906 3.359375 L 23.503906 27.964844 L 5.320312 27.964844 Z M 5.320312 3.359375 "/>
</g>
</g>
<path style="fill:none;stroke-width:0.5;stroke-linecap:butt;stroke-linejoin:miter;stroke:rgb(0%,0%,0%);stroke-opacity:1;stroke-miterlimit:10;" d="M 8.182696 -0.000325 L 8.182696 9.737956 L -0.0008975 14.605144 L -0.0008975 4.870769 Z M 8.182696 -0.000325 " transform="matrix(1,0,0,1,10.32121,8.3597)"/>
<path style="fill:none;stroke-width:0.6;stroke-linecap:butt;stroke-linejoin:miter;stroke:rgb(0%,0%,0%);stroke-opacity:1;stroke-miterlimit:10;" d="M 2.001563 0 L 2.001563 20 " transform="matrix(1,0,0,1,8.1,39)"/>
<g clip-path="url(#clip7)" clip-rule="nonzero">
<g clip-path="url(#clip8)" clip-rule="evenodd">
<path style=" stroke:none;fill-rule:nonzero;fill:rgb(0%,72.941589%,100%);fill-opacity:1;" d="M -3.074219 26 L 23.296875 26 L 23.296875 45.738281 L -3.074219 45.738281 Z M -3.074219 26 "/>
</g>
</g>
<path style="fill:none;stroke-width:0.5;stroke-linecap:butt;stroke-linejoin:miter;stroke:rgb(0%,0%,0%);stroke-opacity:1;stroke-miterlimit:10;" d="M 8.185637 0 L 16.369231 4.867188 L 8.185637 9.738281 L -0.00186275 4.871094 Z M 8.185637 0 " transform="matrix(1,0,0,1,1.927644,31)"/>
<path style="fill:none;stroke-width:0.6;stroke-linecap:butt;stroke-linejoin:miter;stroke:rgb(0%,0%,0%);stroke-opacity:1;stroke-miterlimit:10;" d="M 2.001563 0 L 2.001563 12.398438 " transform="matrix(1,0,0,1,8.1,23)"/>
</g>
</svg>
