<?xml version="1.0" encoding="UTF-8"?>
<svg xmlns="http://www.w3.org/2000/svg" xmlns:xlink="http://www.w3.org/1999/xlink" width="30pt" height="30pt" viewBox="0 0 30 30" version="1.1">
<defs>
<clipPath id="clip1">
  <path d="M 3 2 L 27 2 L 27 29 L 3 29 Z M 3 2 "/>
</clipPath>
<clipPath id="clip2">
  <path d="M 15.164062 2.300781 C 15.101562 2.3125 15.042969 2.347656 15 2.394531 C 12.082031 5.375 7.925781 6.710938 3.746094 6.808594 C 3.578125 6.8125 3.445312 6.945312 3.445312 7.109375 C 3.445312 18.011719 8.382812 26.113281 15.136719 28.136719 C 15.191406 28.152344 15.253906 28.152344 15.308594 28.136719 C 22.066406 26.113281 27 18.011719 27 7.109375 C 27 6.945312 26.867188 6.8125 26.699219 6.808594 C 22.523438 6.710938 18.363281 5.375 15.445312 2.394531 C 15.382812 2.328125 15.289062 2.292969 15.195312 2.300781 C 15.183594 2.300781 15.175781 2.300781 15.164062 2.300781 Z M 15.164062 2.300781 "/>
</clipPath>
<clipPath id="clip3">
  <path d="M 9 8 L 22 8 L 22 23 L 9 23 Z M 9 8 "/>
</clipPath>
<clipPath id="clip4">
  <path d="M 21.199219 8.070312 C 21.855469 10.335938 20.804688 12.464844 19.882812 13.398438 C 18.609375 14.691406 15.863281 16.980469 13.65625 18.941406 L 12.601562 17.859375 C 16.035156 14.597656 18.492188 11.332031 21.199219 8.070312 Z M 9.207031 8.070312 C 11.101562 10.355469 12.875 12.640625 14.949219 14.925781 C 14.542969 15.371094 14.121094 15.816406 13.6875 16.261719 C 12.410156 15.152344 11.230469 14.121094 10.519531 13.398438 C 9.601562 12.464844 8.546875 10.335938 9.207031 8.070312 Z M 16.707031 16.78125 C 17.0625 17.140625 17.425781 17.5 17.804688 17.859375 L 16.746094 18.941406 C 16.34375 18.582031 15.914062 18.214844 15.488281 17.84375 C 15.898438 17.488281 16.300781 17.132812 16.707031 16.78125 Z M 18.585938 17.609375 L 19.359375 18.398438 L 18.972656 18.789062 L 21.300781 21.15625 C 21.433594 21.296875 21.441406 21.539062 21.300781 21.683594 L 20.523438 22.46875 C 20.386719 22.621094 20.148438 22.578125 20.007812 22.46875 L 17.679688 20.101562 L 17.292969 20.496094 L 16.519531 19.710938 Z M 11.820312 17.609375 L 13.886719 19.710938 L 13.113281 20.496094 L 12.722656 20.101562 L 10.398438 22.46875 C 10.257812 22.578125 10.019531 22.621094 9.882812 22.46875 L 9.105469 21.683594 C 8.960938 21.539062 8.96875 21.296875 9.105469 21.15625 L 11.429688 18.789062 L 11.042969 18.398438 Z M 18.886719 19.054688 L 17.945312 20.007812 L 18.472656 20.550781 L 19.414062 19.597656 Z M 11.519531 19.054688 L 10.992188 19.597656 L 11.929688 20.550781 L 12.460938 20.007812 Z M 20.011719 20.199219 L 19.074219 21.152344 L 19.601562 21.695312 L 20.542969 20.742188 Z M 10.390625 20.199219 L 9.863281 20.742188 L 10.804688 21.695312 L 11.332031 21.152344 Z M 10.390625 20.199219 "/>
</clipPath>
</defs>
<g id="surface1">
<g clip-path="url(#clip1)" clip-rule="nonzero">
<g clip-path="url(#clip2)" clip-rule="evenodd">
<rect x="0" y="0" width="30" height="30" style="fill:rgb(0%,0%,0%);fill-opacity:1;stroke:none;"/>
</g>
</g>
<path style="fill:none;stroke-width:0.5;stroke-linecap:butt;stroke-linejoin:miter;stroke:rgb(100%,0%,0%);stroke-opacity:1;stroke-miterlimit:10;" d="M 11.717782 0.00130125 C 11.655282 0.01302 11.596688 0.0481762 11.553719 0.0950512 C 8.63575 3.07552 4.4795 4.411457 0.299813 4.509114 C 0.131844 4.51302 -0.0009685 4.645832 -0.0009685 4.809895 C -0.0009685 15.712239 4.936532 23.813801 11.690438 25.837239 C 11.745125 25.852864 11.807625 25.852864 11.862313 25.837239 C 18.620125 23.813801 23.553719 15.712239 23.553719 4.809895 C 23.553719 4.645832 23.420907 4.51302 23.252938 4.509114 C 19.077157 4.411457 14.917 3.07552 11.999032 0.0950512 C 11.936532 0.028645 11.842782 -0.00651125 11.749032 0.00130125 C 11.737313 0.00130125 11.7295 0.00130125 11.717782 0.00130125 Z M 11.717782 0.00130125 " transform="matrix(1,0,0,1,3.446281,2.29948)"/>
<g clip-path="url(#clip3)" clip-rule="nonzero">
<g clip-path="url(#clip4)" clip-rule="evenodd">
<path style=" stroke:none;fill-rule:nonzero;fill:rgb(100%,0%,0%);fill-opacity:1;" d="M 4 27.566406 L 26.40625 27.566406 L 26.40625 3.070312 L 4 3.070312 Z M 4 27.566406 "/>
</g>
</g>
</g>
</svg>
